<svg version="1.1" xmlns="http://www.w3.org/2000/svg" xmlns:xlink="http://www.w3.org/1999/xlink" role="img" width="213" height="78" viewbox="0 0 213 78"><title>boxup</title><desc>Generated by logo.svg, https://github.com/bubkoo/logo.svg</desc><path fill="#6ccb99" d="M11.98 25.52L12.13 25.52Q18.07 25.52 28.79 28.05Q33.54 29.42 35.61 32.41Q36.66 34.24 36.66 35.79Q36.66 39.37 31.81 42.46Q30.41 43.17 28.30 43.73L28.30 43.80Q37.30 48.76 37.30 54.84L37.30 54.91Q37.30 59.23 34.13 62.50Q30.90 65.39 28.65 65.88Q24.85 66.72 19.09 66.72Q14.76 66.72 10.72 65.60Q10.30 65.32 10.30 64.96L10.30 64.89Q10.51 63.31 10.58 63.14Q10.51 61.87 10.51 61.24L10.51 40.29Q10.51 37.09 10.86 28.12Q10.51 27.07 10.51 26.86L10.51 26.57Q10.51 25.80 11.98 25.52M12.83 27.98L13.04 28.96Q12.41 29.46 12.41 37.26Q12.27 43.34 12.20 57.65Q12.20 63.70 12.76 63.70Q12.76 64.65 19.09 65.04Q28.30 64.40 28.30 63.91Q32.16 62.68 33.92 59.69Q35.12 57.62 35.12 56.67L35.05 56.67Q30.30 59.06 28.79 59.41L28.79 59.27Q29.14 59.02 33.15 57.09Q35.26 55.86 35.26 55.26Q35.33 54.91 35.33 54.42Q35.33 51.11 31.95 48.16Q27.17 44.57 25.13 44.57Q24.08 44.08 24.08 43.38L24.08 43.31Q24.39 41.90 25.48 41.90L25.84 41.90Q26.54 42.04 26.61 42.04Q27.95 42.04 30.69 40.92Q34.55 38.46 34.55 35.93L34.55 35.86Q34.55 31.53 28.44 29.67Q28.02 29.67 25.55 31.43Q25.45 31.50 25.27 31.50L25.27 31.43Q25.27 31.32 26.61 29.95Q26.89 29.63 26.89 29.32Q26.89 29.14 18.80 27.84Q16.13 27.56 14.30 27.56Q13.29 27.56 12.83 27.98M20.28 28.19Q20.49 28.44 20.49 28.54Q20.42 28.82 18.52 29.95Q14.20 33.54 13.88 33.54L13.81 33.54L13.81 33.46Q17.61 29.63 20.14 28.19L20.28 28.19M17.19 28.33L17.19 28.47Q17.19 29 14.52 30.79Q14.52 30.86 14.02 31.14L13.95 31.14L13.95 31.07Q16.31 28.33 17.19 28.33M17.96 28.40Q18.52 28.47 18.52 28.61Q18.52 29 16.70 30.09Q16.55 30.30 13.81 32.55Q13.67 32.55 13.67 32.41L13.67 32.34Q16.38 29.63 17.96 28.40M15.01 28.68L15.08 28.68Q15.08 29.88 13.32 30.44L13.18 30.44L13.11 30.30Q14.55 28.93 15.01 28.68M22.04 28.68L22.39 28.68Q22.53 28.72 22.53 28.82L22.53 28.89Q22.53 29.42 20.70 30.51L20.14 31.14Q21.02 31.85 22.53 31.85Q23.87 32.27 26.19 33.46Q27.49 33.46 28.16 36.21Q28.16 37.51 25.06 38.67L19.93 39.16Q18.45 38.98 18.45 37.96Q19.02 36.10 19.02 35.08Q18.88 33.50 18.88 32.69Q18.88 31.21 21.83 28.96Q21.93 28.68 22.04 28.68M23.73 29.04L23.94 29.04Q24.04 29.04 24.15 29.25Q24.15 29.74 22.67 30.44Q21.86 31.07 21.62 31.07L21.62 31.00Q22.14 29.74 23.73 29.04M25.63 29.53L25.77 29.53L25.77 29.60Q24.61 30.86 23.87 30.86Q24.71 29.53 25.63 29.53M28.93 30.16L29.21 30.16Q29.35 30.20 29.35 30.30L29.35 30.51Q28.19 31.71 26.68 32.06L26.61 32.06L26.61 31.99Q26.61 31.95 28.93 30.16M30.05 30.65L30.27 30.65Q30.41 30.69 30.41 30.79L30.41 30.93Q30.41 31.57 27.73 33.04L27.59 32.83L30.05 30.65M18.03 31.00L18.24 31.00Q18.38 31.04 18.38 31.14L18.38 31.29Q18.38 31.43 16.27 32.90Q13.00 35.86 12.76 35.86Q12.76 35.79 12.69 35.79Q12.69 35.12 16.41 32.13Q16.98 31.71 18.03 31.00M31.18 31.78Q31.32 31.81 31.32 31.92L31.32 31.99Q30.48 32.94 28.86 33.54L28.86 33.46Q30.44 31.78 31.18 31.78M32.30 32.34Q32.45 32.62 32.45 32.83Q31.74 33.61 30.41 34.24Q30.27 34.24 30.27 34.10L30.27 34.03Q31.21 33.15 32.30 32.34M17.61 33.32L17.61 33.61Q17.22 33.96 14.94 35.29L14.87 35.29L14.87 35.22Q16.84 33.32 17.61 33.32M20.70 36.98Q20.70 37.09 20.91 37.19L21.20 37.19Q24.92 37.19 25.70 36.21Q25.98 35.93 25.98 35.64Q25.98 34.84 22.60 33.68Q21.90 33.54 21.34 33.54Q20.70 33.54 20.70 35.50L20.70 36.98M32.73 33.54L32.80 33.54Q32.90 33.54 33.01 33.82Q31.81 35.22 30.62 35.64L30.55 35.64L30.48 35.50Q30.72 35.19 32.73 33.54M13.67 33.61L13.74 33.61Q13.46 34.20 13.18 34.45L13.11 34.45Q13.11 33.99 13.67 33.61M33.29 34.80L33.36 34.94Q33.36 35.79 31.25 36.91Q27.66 39.23 26.96 39.51Q27.42 38.84 30.20 37.05Q31.88 35.96 33.29 34.80M14.80 35.36Q14.62 35.71 14.52 35.71L14.45 35.71Q14.30 35.71 14.30 35.57Q14.66 35.36 14.80 35.36M16.84 35.64L16.91 35.64L16.91 35.71Q16.91 36.56 15.08 37.54L14.38 37.75L14.38 37.68Q16.45 35.93 16.84 35.64M32.30 37.40L32.52 37.40Q32.66 37.44 32.66 37.54L32.66 37.75Q30.83 39.44 29.14 40.00Q29.04 40.00 28.93 39.79Q29.77 39.34 32.30 37.40M16.91 37.61L16.98 37.61Q16.98 38.60 14.59 40.21L14.23 40.29L14.16 40.29Q14.97 39.41 16.91 37.61M16.91 39.37L17.12 39.37L17.12 39.58Q16.66 40.50 14.38 42.54Q14.23 42.54 14.23 42.39L14.23 42.25Q15.46 40.78 16.91 39.37M26.68 39.58L26.82 39.58L26.82 39.65Q26.82 39.76 26.40 40.00L26.40 39.86Q26.40 39.76 26.68 39.58M19.86 39.93L20 39.93Q20.21 39.93 20.21 40.21Q20.21 40.53 18.45 41.20Q16.38 42.39 13.04 45.56L12.90 45.63L12.76 45.63L12.69 45.28Q17.29 41.09 18.59 40.64Q19.54 39.93 19.86 39.93M21.55 40.14Q21.65 40.14 21.76 40.36L21.76 40.57Q18.66 41.80 13.67 45.98Q13.53 45.98 13.53 45.84Q13.53 45.56 15.99 43.66Q19.12 41.13 21.05 40.14L21.55 40.14M22.60 40.71L22.88 40.71Q23.02 40.74 23.02 40.85Q23.02 41.41 20.84 42.39Q18.80 43.84 13.81 47.53L13.32 47.60L13.32 47.39Q18.42 43.20 22.60 40.71M22.81 41.97Q23.09 42.08 23.09 42.18Q22.64 42.75 20.35 43.87Q16.59 46.47 14.38 48.16L14.23 48.16Q14.23 47.67 16.06 46.40Q18.56 44.29 21.41 42.75Q22.29 41.97 22.81 41.97M23.16 43.66L23.30 43.66L23.38 44.01Q23.06 44.68 19.86 46.12Q18.21 47.18 14.59 49.57L14.52 49.43Q14.52 48.93 16.20 48.09Q22.92 43.70 23.16 43.66M23.52 45.00Q23.94 45.07 23.94 45.21L23.94 45.28Q23.94 45.35 23.45 45.77Q23.55 45.77 23.73 46.05Q23.73 46.19 23.59 46.19L23.45 46.19L23.16 45.98Q20.18 47.28 15.78 49.92L15.64 49.92Q15.50 49.92 15.50 49.78Q15.99 49.39 22.39 45.63Q23.13 45.00 23.52 45.00M24.85 46.05Q24.99 46.12 25.13 46.12L25.13 46.26Q24.85 46.75 22.11 48.02Q18.49 50.06 17.26 51.04Q17.01 51.25 16.77 51.25L16.70 51.11L16.70 51.04Q17.36 50.30 21.05 48.16Q24.68 46.05 24.85 46.05M26.54 46.68L26.75 46.68Q26.89 46.72 26.89 46.82Q26.89 47.39 24.99 48.16Q21.97 50.09 21.55 50.20L21.48 50.06Q21.48 49.74 25.91 47.11Q25.91 47.04 26.54 46.68M28.72 47.46Q28.86 47.49 28.86 47.60L28.86 47.95Q27.95 48.93 24.01 50.62L24.01 50.55Q25.10 49.53 27.88 48.16Q27.88 48.13 28.72 47.46M30.13 48.65L30.27 48.65Q30.27 49.74 26.47 51.25L25.06 52.10L24.92 52.10L24.92 51.82Q25.66 51.18 29.07 49.50L30.13 48.65M32.38 49.50L32.52 49.50L32.52 49.78Q32.52 50.80 28.30 52.24Q26.96 52.87 26.61 52.87L26.54 52.73Q27.03 52.24 30.83 50.76Q31.57 50.34 32.23 49.57L32.38 49.50M20 50.62L20.35 50.62Q20.77 51.46 21.55 51.46Q22.85 51.46 25.27 53.50Q26.40 54.95 26.40 56.18Q26.40 58.78 22.39 59.76L20.21 59.76Q18.73 59.76 18.73 58.64Q19.44 56.11 19.44 53.36L19.44 51.68Q16.80 53.01 14.30 54.84L14.02 54.84Q13.92 54.84 13.81 54.63Q13.81 54.35 16.77 52.66Q17.12 52.38 20 50.62M33.22 51.39L33.22 51.68Q33.22 52.66 27.95 54.63Q27.80 54.56 27.73 54.56L27.73 54.49Q27.84 54.28 31.81 52.45Q32.97 51.39 33.22 51.39M18.73 52.94L18.80 53.08L18.80 53.36Q18.73 53.61 15.64 55.05L13.81 56.32Q13.71 56.39 13.46 56.39L13.32 56.18Q16.41 53.68 18.73 52.94M33.99 52.94L34.06 53.08Q34.06 54.07 30.48 55.33Q30.16 55.61 27.80 56.53L27.66 56.32Q28.89 55.61 32.66 53.93Q33.75 52.94 33.99 52.94M20.84 57.72Q20.88 58.14 21.62 58.14Q23.02 58.14 24.22 56.67Q24.50 56.32 24.50 55.89L24.50 55.54Q24.50 54.28 21.69 53.22L21.48 53.22Q21.16 53.22 20.84 57.72M34.20 54.49L34.27 54.49Q34.27 55.30 32.80 55.75Q24.15 60.57 23.23 61.31Q23.23 62.01 20.56 63.00Q20.32 63.14 20 63.14L20 63.00Q25.24 59.23 33.78 54.70Q33.85 54.49 34.20 54.49M18.24 55.54L18.31 55.68L18.31 55.96Q18.31 56.53 14.59 57.58Q14.87 57.16 18.24 55.54M14.38 57.65L14.38 57.79Q13.81 58.50 13.32 58.50L13.25 58.50L13.25 58.43Q13.50 57.90 14.30 57.65L14.38 57.65M17.33 57.93L17.47 58.29Q17.47 58.71 14.38 59.90L14.23 59.69Q14.23 59.55 17.33 57.93M32.09 59.13L32.16 59.27L32.16 59.34Q30.65 60.71 29 61.17L28.93 61.17L28.93 61.03Q29.21 60.75 32.09 59.13M17.40 59.41L17.47 59.41Q17.61 59.41 17.68 59.83Q17.68 60.15 15.43 61.17Q14.66 61.80 13.88 62.15L13.81 62.01Q15.01 60.78 17.40 59.41M28.37 59.48L28.51 59.48L28.51 59.55Q28.51 59.66 28.30 59.76Q28.16 59.76 28.16 59.62L28.37 59.48M27.31 60.11L27.31 60.18Q26.33 61.13 25.41 61.17Q26.47 60.11 27.31 60.11M20.21 60.32L20.35 60.54L20.35 60.68Q20.35 61.20 18.80 61.73Q16.17 63.31 15.22 63.70L15.15 63.56Q15.54 63.14 20.21 60.32ZM59.24 30.02L61.77 30.02Q66.98 30.02 69.16 32.13Q73.66 33.18 79.14 38.81Q80.90 41.06 81.95 44.15Q83.85 49.32 83.85 50.83L83.85 51.75Q83.85 54.73 81.95 58.21Q77.31 62.36 74.57 63.21Q66.63 66.72 62.05 66.72L61.14 66.72Q57.59 66.72 51.30 64.61Q48.98 63.66 44.69 59.55Q42.09 56.56 41.59 54.14Q40.89 50.27 40.89 49.36L40.89 48.23Q40.89 44.96 42.37 40.29Q43.04 38.67 46.66 34.94Q50.03 31.81 56.78 30.23Q58.40 30.02 59.24 30.02M43 48.93Q43 51.99 43.98 55.05Q47.04 61.17 53.48 63.49Q58.47 64.75 61 64.75L61.98 64.75Q64.80 64.75 64.80 64.12Q65.82 63.14 70.70 59.27Q72.99 57.09 73.45 57.09L73.66 57.09L73.66 57.30Q72.81 58.39 68.88 61.31Q66.24 63.35 65.71 64.19L65.78 64.19Q66.59 64.19 71.55 62.29Q74.25 60.46 74.43 60.46L73.52 61.45L73.59 61.45Q76.05 60.85 80.20 57.09Q80.76 56.18 80.76 55.75Q78.79 57.23 77.88 57.65Q78.44 56.91 81.11 54.84Q81.74 53.33 81.74 51.75L81.74 50.97Q81.74 50.69 81.60 50.06L81.46 50.06Q79.18 51.68 73.45 55.82Q73.23 55.96 73.09 55.96L73.02 55.82Q73.41 55.44 81.53 49.14Q79.07 41.02 77.45 39.86Q73.52 35.86 72.95 35.86Q71.05 37.82 70.07 37.82L70.07 37.75Q71.05 36.70 72.18 35.93L72.32 35.43L72.32 35.36Q72.21 35.36 71.55 35.01Q70.46 36.70 69.44 36.70L69.30 36.70Q69.16 36.70 69.16 36.56Q70.98 35.08 70.98 34.73Q67.75 33.25 64.73 32.41Q62.83 31.92 61.91 31.92Q55.73 31.92 53.20 33.25Q48.80 34.70 45.18 39.58Q44.34 40.81 43.77 43.17Q43 46.26 43 48.93M58.54 32.90L58.75 32.90Q58.89 32.94 58.89 33.04Q58.89 33.46 55.09 36.84Q53.93 37.68 53.62 37.68Q55.62 35.61 58.54 32.90M64.52 33.11Q64.62 33.11 64.73 33.39Q64.73 33.82 62.76 34.94L62.76 35.08Q65.32 35.86 65.71 35.86Q65.96 35.86 68.10 34.52L68.31 34.52L68.31 34.73Q68.31 35.22 66.34 36.35L66.34 36.42Q69.72 39.48 70.42 41.06Q72.74 46.05 72.74 49.64L72.74 49.99Q72.74 53.89 69.23 57.37Q68.00 58.88 65.36 59.48Q62.34 59.90 62.34 60.18Q62.13 60.75 59.38 62.79L58.82 63.21L58.75 63.21Q58.75 62.47 61.56 60.46Q61.56 60.36 61.77 60.11L61.77 60.04L61.70 60.04Q59.59 60.04 54.74 58.85L52.56 57.79L52.42 57.79Q50.77 58.46 49.61 60.11L49.40 60.11Q49.22 60.11 49.19 59.76Q49.19 59.41 51.93 57.02Q50.03 54.52 49.82 52.10Q49.26 49.14 49.26 48.58Q49.26 46.89 51.72 41.97L51.72 41.90Q51.16 41.90 46.09 45.63L46.02 45.63L45.88 45.42Q49.61 42.08 51.79 41.13Q52.74 41.13 55.09 38.60Q56.68 37.54 59.31 34.80Q61.14 33.22 61.70 33.18L61.77 33.32L61.77 33.68Q59.56 35.33 59.17 35.71Q61.04 35.40 62.90 34.24Q63.99 33.11 64.52 33.11M66.06 33.82L66.13 33.96L66.13 34.24Q64.94 35.22 64.38 35.22L64.30 35.22Q64.20 35.22 64.09 35.01Q65.22 33.82 66.06 33.82M55.59 34.59Q55.73 34.63 55.73 34.73Q55.73 35.08 54.32 36.14Q51.44 38.53 47.99 41.97Q45.64 44.50 45.25 44.50L45.18 44.36Q51.47 37.47 54.67 35.01Q55.13 34.59 55.59 34.59M53.13 35.22L53.48 35.36Q53.41 35.71 51.37 36.84L46.52 41.13Q45.57 41.62 45.46 41.62L45.39 41.48L45.39 41.34Q50.14 37.12 51.93 35.79Q52.63 35.22 53.13 35.22M51.30 49.14L51.30 49.21Q51.96 54.66 53.13 55.75Q53.69 56.84 55.52 57.44Q58.29 58.21 60.79 58.21L60.86 58.21Q68.21 58.21 70.42 52.10Q70.70 51.25 70.70 50.20Q70.70 45.35 68.59 41.76Q66.03 37.05 62.13 37.05Q59.56 37.05 56.64 39.93Q53.27 43.06 53.20 43.66Q51.30 46.89 51.30 49.14M73.52 37.19Q73.66 37.23 73.66 37.33L73.66 37.54Q71.97 39.16 71.27 39.30L71.05 39.30L71.05 39.23Q71.05 38.42 73.45 37.19L73.52 37.19M74.57 39.37L74.85 39.37Q74.99 39.41 74.99 39.51L74.99 39.58Q74.18 40.50 71.90 41.69L71.83 41.69Q71.48 41.69 71.41 41.48L71.41 41.41Q71.62 41.20 74.57 39.37M76.75 40.36L76.89 40.36Q77.03 40.39 77.03 40.50Q77.03 40.78 74.22 43.03Q73.23 44.15 72.95 44.15Q72.60 44.08 72.60 43.94L72.60 43.87Q76.26 40.36 76.75 40.36M77.95 42.61L78.02 42.61Q78.16 42.61 78.16 42.82Q77.56 43.59 74.08 45.98Q74.08 46.09 73.87 46.19L73.80 46.19L73.80 46.05Q76.68 42.61 77.95 42.61M79.49 44.29L79.63 44.50Q79.63 44.96 78.23 45.77Q74.11 49.00 73.52 49.00Q73.23 48.90 73.23 48.79Q73.66 48.30 79.07 44.36Q79.46 44.29 79.49 44.29M49.54 45.14L49.61 45.28L49.61 45.42Q49.50 45.63 45.04 47.95Q45.04 47.88 44.97 47.88Q44.97 47.39 47.85 45.70Q48.98 45.14 49.54 45.14M80.27 46.82L80.41 47.04Q80.41 47.49 78.58 48.65Q75.80 50.76 73.80 52.31L73.30 52.31Q73.16 52.31 73.16 52.17Q78.19 48.02 79.98 46.89L80.27 46.82M47.78 47.32Q47.92 47.35 47.92 47.46L47.92 47.74Q47.64 48.13 44.34 49.78L44.27 49.78L44.20 49.64L44.20 49.57Q44.48 48.97 47.71 47.39Q47.71 47.32 47.78 47.32M47.15 49.92L47.15 49.99Q46.83 50.52 44.83 51.68Q44.83 51.89 44.69 51.89Q44.51 51.89 44.48 51.54Q44.48 50.90 47.15 49.92M48.13 51.18L48.34 51.46Q48.34 51.64 45.88 53.22L44.41 54.49L44.20 54.49Q44.20 53.61 47.78 51.32Q47.92 51.32 48.13 51.18M81.18 51.61Q81.32 51.61 81.32 51.82Q80.79 52.87 77.52 55.33Q75.59 56.95 75.34 56.95L75.34 56.88Q79.04 53.26 81.18 51.61M48.41 53.22L48.48 53.36L48.48 53.57Q48.48 53.68 46.23 55.05Q46.23 55.12 45.39 55.75L45.32 55.75L45.32 55.68Q46.20 54.00 48.41 53.22M48.98 54.84L48.98 54.91Q48.98 55.44 46.30 57.02Q46.30 56.95 46.23 56.95Q46.23 56 48.98 54.84M50.24 56.25L50.31 56.39Q49.93 56.88 48.34 57.65Q47.46 58.43 47.22 58.43Q48.84 56.25 50.24 56.25M50.73 56.88L50.80 57.02Q50.80 57.41 49.40 57.86L49.40 57.79Q49.93 57.13 50.73 56.88M75.27 56.95L75.27 57.02Q74.75 57.79 74.08 58.14L74.01 58.14L74.01 58.00Q74.75 56.95 75.27 56.95M77.66 57.86Q75.45 60.04 74.64 60.25Q76.19 58.64 77.66 57.86M73.23 58.57L73.30 58.71Q71.55 60.64 70.56 61.17Q69.68 62.50 69.02 62.50L69.02 62.43Q69.79 61.31 70.77 60.89Q70.84 60.39 73.23 58.57M53.55 58.78L53.69 58.78Q53.83 58.81 53.83 58.92Q53.69 59.45 52 60.46Q51.40 61.24 50.88 61.24Q50.88 61.17 50.80 61.17Q51.19 60.29 53.27 58.85Q53.41 58.78 53.55 58.78M68.03 59.20L68.24 59.62Q67.82 60.50 64.94 62.71Q63.81 63.63 63.67 63.63Q63.46 63.56 63.46 63.49Q63.71 63.03 67.26 60.11Q67.26 60.01 68.03 59.20M55.30 59.76L55.45 59.76L55.45 59.90Q55.45 60.71 53.48 61.73Q53.48 61.87 52.70 62.22L52.63 62.08Q54.29 60.36 55.30 59.76M58.05 60.11L58.05 60.39Q58.01 60.54 55.02 62.93Q55.02 63.03 54.46 63.42L54.46 63.35Q55.30 61.41 57.91 60.11L58.05 60.11M59.95 60.39L60.02 60.39Q60.12 60.39 60.23 60.75Q59.73 61.48 56.85 63.42L56.64 63.42Q56.50 63.42 56.50 63.28Q57.66 62.08 59.95 60.39M65.43 60.75Q65.57 60.75 65.57 60.96Q65.22 61.55 61.14 64.40L60.58 64.40L60.58 64.33Q61.35 63.45 62.90 62.57Q62.93 62.57 65.15 60.75L65.43 60.75M68.88 62.64Q68.88 62.79 68.31 63.35L68.24 63.35L68.24 63.28Q68.24 62.64 68.88 62.64ZM93.21 19.19L93.28 19.19Q93.63 19.19 95.39 21.16L95.95 21.30L102.49 20.60Q102.91 20.60 103.27 21.09L103.27 21.30Q103.27 22.00 97.29 22.36Q96.38 22.50 96.38 22.64Q96.38 22.81 100.38 27.56Q104.14 32.97 104.67 33.54Q106.15 32.94 110.65 28.47L116.20 22.14Q116.55 21.93 116.98 21.93Q117.33 21.93 123.09 25.31Q130.09 28.89 132.02 29.67Q132.38 30.09 132.38 30.37L132.38 30.58Q132.38 31.57 130.76 32.41Q130.02 32.41 126.89 36.07Q124.43 38.91 115.64 47.46L115.64 47.74Q116.73 48.86 121.97 52.94Q123.62 54.66 126.40 57.93Q131.11 62.43 132.52 62.43Q133.15 62.96 133.15 63.70Q133.15 64.33 132.16 64.61L131.81 64.61Q131.11 64.12 130.13 64.05Q129.81 64.05 124.43 65.32Q117.82 66.16 114.23 66.72L113.74 66.72Q113.07 66.72 110.93 65.04Q109.52 64.33 105.16 59.83Q103.05 57.16 102.77 57.16L102.63 57.16Q101.75 57.20 98.70 61.03Q97.96 62.12 97.36 63.63Q97.15 63.98 96.73 64.05Q93.74 63.56 84.91 61.45Q83.79 61.31 82.88 61.31Q82.38 61.31 80.98 61.45Q80.13 61.45 79.99 60.39Q79.99 59.76 82.59 57.65Q87.87 53.05 91.52 49.07Q95.11 44.89 95.11 44.50L95.11 44.43Q95.11 44.12 89.70 37.47Q89.48 37.16 79.64 23.90L79.64 23.55Q79.64 22.04 88.71 21.65Q92.65 21.48 92.93 21.30L93 21.16Q93 20.70 92.86 19.82Q93 19.19 93.21 19.19M93.35 22.64Q81.68 22.92 81.68 23.97Q82.10 25.24 86.74 31.29Q91.73 38.18 95.32 42.46Q97.22 44.05 97.22 44.15Q97.29 44.15 97.29 44.36L97.29 44.50Q97.29 45.77 87.80 54.91Q82.73 59.38 82.73 59.48L82.73 59.69Q83.44 59.69 93.07 61.94Q94.30 62.08 95.04 62.08Q96.16 62.08 97.50 59.90Q102.14 54.91 102.77 54.91Q102.84 54.91 102.98 54.84Q103.90 54.84 104.88 57.23Q107.27 60.85 111.70 63.84Q113.18 64.96 114.23 64.96Q117.26 64.54 122.67 64.12Q129.42 62.86 129.42 62.57Q127.17 60.96 123.87 57.37Q120.46 53.57 118.88 52.52Q114.48 49.18 112.97 48.72Q112.55 48.30 112.55 47.81L112.55 47.39Q112.55 47.28 114.66 45.84Q118.14 42.82 124.71 36.21Q124.78 36.07 127.95 32.62Q129.35 31.00 129.35 30.65L129.35 30.58Q129.35 29.84 125.91 28.33Q117.93 23.97 117.54 23.97L117.26 23.97Q116.73 23.97 113.60 27.49Q108.47 33.01 106.92 34.03Q104.25 35.93 103.27 35.93Q102.49 35.71 102.49 35.15L102.49 35.01Q102.84 34.17 102.84 34.03Q101.93 31.32 94.55 22.78Q93.77 22.64 93.77 22.57Q93.74 22.57 93.35 22.64M90.96 23.97Q91.10 24.01 91.10 24.11Q90.86 24.54 90.75 24.54L90.68 24.54Q90.54 24.54 90.54 24.39L90.96 23.97M88.15 24.32L88.22 24.32Q88.36 24.36 88.36 24.46Q88.36 24.57 88.15 24.68Q88.01 24.68 88.01 24.54L88.01 24.46Q88.04 24.32 88.15 24.32M85.83 25.10L85.90 25.24L85.90 25.31Q85.86 25.45 85.27 25.87L85.20 25.87L85.20 25.52Q85.44 25.10 85.83 25.10M94.76 25.80Q94.90 25.84 94.90 25.94Q94.90 26.36 94.34 26.43L94.20 26.43L94.20 26.36Q94.23 25.80 94.76 25.80M118.31 26.29L118.45 26.50L118.45 26.64L114.87 28.82Q116.38 27.07 118.24 26.29L118.31 26.29M95.74 27.42Q95.88 27.49 95.95 27.49L95.95 27.70Q95.78 28.05 95.67 28.05L95.60 28.05Q95.46 28.05 95.46 27.91L95.74 27.42M122.53 27.70L122.74 27.98L122.74 28.19Q122.32 28.93 121.34 29.67L121.20 29.67Q121.05 29.67 121.05 29.53Q121.13 29.25 121.76 28.68Q122.11 27.73 122.39 27.70L122.53 27.70M118.73 28.05Q118.73 28.12 118.80 28.12Q118.35 29.07 116.41 30.02Q116.41 30.09 116.34 30.09L116.27 30.09Q116.27 29.25 118.73 28.05M97.01 29.53L97.08 29.67L96.59 30.16L96.52 30.02L96.52 29.81Q96.62 29.53 97.01 29.53M124.71 29.95L124.71 30.02Q124.71 30.48 123.02 31.85L122.95 31.85L122.95 31.78Q123.09 31.07 124.50 29.95L124.71 29.95M113.32 30.02Q113.46 30.05 113.46 30.16Q113.46 30.27 112.97 30.65Q112.83 30.65 112.83 30.51Q112.83 30.44 113.32 30.02M122.60 30.16Q121.20 31.85 120.28 32.20L120.28 32.13Q121.48 30.16 122.60 30.16M116.13 30.16L116.20 30.16L116.20 30.23Q115.46 31.21 114.73 31.57L114.59 31.57L114.59 31.50Q115.54 30.16 116.13 30.16M119.86 30.37L119.93 30.51Q119.93 30.93 119.37 31.00L119.30 30.86Q119.30 30.76 119.86 30.37M125.70 31.43L125.77 31.57Q125.48 31.95 124.08 32.97Q123.94 32.97 123.94 32.83Q125.17 31.43 125.70 31.43M122.67 31.99L122.81 31.99L122.81 32.06Q122.81 32.16 122.46 32.41Q122.32 32.41 122.32 32.27Q122.32 32.20 122.67 31.99M98.84 32.69L98.84 32.83Q97.68 34.10 97.15 34.10L97.15 34.03Q98.27 32.69 98.84 32.69M113.39 32.69L113.60 32.69L113.60 32.76Q113.46 33.11 113.32 33.11Q113.18 33.11 113.18 32.97L113.18 32.90Q113.18 32.83 113.39 32.69M121.69 32.90L121.90 32.90L121.90 33.04Q121.90 33.18 121.76 33.18L121.62 33.18Q121.48 33.18 121.48 33.04L121.69 32.90M122.95 33.75L123.09 33.75L123.09 33.89Q122.57 34.59 122.18 34.59Q122.85 33.75 122.95 33.75M96.80 34.24L97.01 34.24L97.01 34.31Q97.01 34.41 96.45 34.87L96.38 34.73L96.38 34.66Q96.38 34.59 96.80 34.24M115.36 34.31L115.36 34.38Q115.36 34.48 114.66 34.94L114.59 34.94L114.59 34.87Q114.87 34.31 115.36 34.31M109.03 34.52L109.10 34.66Q109.10 34.77 108.75 35.01L108.68 35.01L108.68 34.87Q108.68 34.80 109.03 34.52M100.17 34.59Q100.17 34.66 100.24 34.66Q100.07 35.29 98.06 36.70Q95.81 38.74 95.81 39.16L95.67 39.16L95.67 39.02Q95.67 38.67 96.38 38.11Q96.41 37.82 99.33 35.15Q99.79 34.59 100.17 34.59M120.98 35.71L121.05 35.71L121.05 35.86Q120.91 36.03 120.91 36.14L120.70 36.14L120.70 36.00Q120.70 35.89 120.98 35.71M107.48 36.21Q107.63 36.24 107.63 36.35Q106.50 37.75 106.43 37.75L106.36 37.75Q106.22 37.75 106.22 37.61L106.22 37.54Q106.36 37.23 107.48 36.21M113.04 36.21L113.04 36.35Q113.04 36.45 112.83 36.56Q112.69 36.56 112.69 36.42Q112.69 36.28 113.04 36.21M110.02 36.28L110.16 36.28L110.16 36.35Q110.16 36.52 109.80 36.56Q109.91 36.28 110.02 36.28M94.90 36.42L94.97 36.56Q94.83 36.91 94.69 36.91L94.62 36.77Q94.76 36.45 94.90 36.42M101.16 36.56L101.16 36.84Q101.16 36.95 98.70 38.95L97.08 41.06L96.87 41.06L96.87 40.92Q96.94 40.11 100.59 36.77Q101.02 36.56 101.16 36.56M109.66 36.70L109.66 36.84Q109.66 36.95 109.45 37.05L109.38 36.91L109.66 36.70M117.68 36.70L117.75 36.70L117.75 36.77Q116.24 38.70 114.66 39.72L114.45 39.72L114.45 39.58Q114.52 39.48 117.68 36.70M112.13 36.91L112.20 36.91L112.20 37.12L111.98 37.12L111.98 37.05Q112.02 36.91 112.13 36.91M108.75 37.54L108.82 37.54Q108.96 37.58 108.96 37.68Q108.96 37.79 108.33 38.32Q108.19 38.32 108.19 38.18L108.19 38.11Q108.19 38.04 108.75 37.54M111.28 37.68Q111.42 37.72 111.42 37.82Q111.42 37.93 111.07 38.18Q110.93 38.18 110.93 38.04L111.28 37.68M102.07 38.25Q102.25 38.25 102.28 38.60Q101.68 39.30 98.20 42.04L98.13 42.04Q98.13 41.45 99.47 40.50Q101.51 38.56 102.07 38.25M105.38 38.53L105.52 38.53L105.52 38.60Q105.20 39.09 105.09 39.09Q104.95 39.09 104.95 38.95Q104.95 38.88 105.38 38.53M118.03 38.53L118.10 38.53Q118.24 38.56 118.24 38.67Q118.24 38.81 117.96 38.95L117.89 38.95Q117.75 38.95 117.75 38.81Q117.75 38.70 118.03 38.53M113.88 40.07L113.95 40.07L113.95 40.21Q113.95 40.32 113.74 40.43L113.67 40.43L113.67 40.29Q113.67 40.21 113.88 40.07M116.41 40.07L116.48 40.07Q116.03 40.99 114.87 41.41L114.87 41.27Q115.15 41.13 116.41 40.07M106.22 40.14L106.29 40.14Q106.29 40.53 105.66 40.99L105.52 40.99L105.52 40.85Q105.52 40.78 106.22 40.14M110.65 41.27Q110.79 41.30 110.79 41.41Q110.79 41.52 110.30 41.90Q110.16 41.90 110.16 41.76Q110.16 41.69 110.65 41.27M112.41 41.34L112.55 41.34L112.55 41.48Q110.61 43.45 107.84 45.70L107.77 45.70Q110.79 42.43 112.41 41.34M101.79 42.25L101.86 42.39Q98.84 45.42 97.57 46.40L97.50 46.40Q97.50 46.02 100.03 43.80Q101.68 42.25 101.79 42.25M104.25 42.25Q104.39 42.29 104.39 42.39Q103.23 43.87 102.84 44.15L102.70 44.15L102.70 44.01Q103.09 43.31 104.25 42.25M106.29 42.54L106.36 42.54L106.36 42.68Q106.36 42.82 106.08 42.96L106.01 42.82Q106.01 42.71 106.29 42.54M113.53 42.54L113.60 42.68L113.39 42.82L113.25 42.82Q113.25 42.71 113.53 42.54M112.97 43.03L113.04 43.03L113.04 43.10Q112.55 43.73 112.13 44.79Q108.61 47.32 104.11 51.46Q103.97 51.82 103.05 52.59L102.91 52.59Q102.84 52.34 102.84 52.10L101.44 53.08L101.37 53.08Q101.51 52.55 104.88 49.78Q112.65 43.03 112.97 43.03M108.05 43.66L108.12 43.66L108.12 43.73Q108.12 43.87 107.98 43.87L107.91 43.87L107.91 43.80Q107.94 43.66 108.05 43.66M107.06 46.26Q107.20 46.30 107.20 46.40Q105.59 48.02 103.83 49.64Q103.69 49.64 103.69 49.50Q106.39 46.58 107.06 46.26M97.36 46.47L97.43 46.47L97.43 46.54Q96.06 48.16 95.46 48.30Q96.48 47 97.36 46.47M100.10 46.96L100.24 46.96L100.24 47.11Q91.91 55.30 90.68 56.60L90.61 56.60Q90.26 56.60 90.19 56.39Q91.31 54.91 97.57 49.14Q98.59 48.23 100.10 46.96M102.14 47.11L102.21 47.11Q102.21 47.49 102 47.53L101.86 47.53L101.86 47.46Q102 47.14 102.14 47.11M111.35 47.53L111.42 47.53Q111.42 48.27 110.02 49.07Q107.91 50.41 105.38 53.22Q105.38 53.50 105.09 53.64L104.88 53.64Q104.74 53.64 104.74 53.50L104.74 53.22Q110.12 47.91 111.35 47.53M94.55 49.21L91.73 52.10L91.59 52.10L91.59 51.89Q92.79 50.30 94.34 49.21L94.55 49.21M111.84 49.43L111.98 49.43L112.05 49.78Q110.54 51.50 108.40 52.87L108.12 52.94L108.12 52.87Q108.82 52.13 111.84 49.43M103.13 50.20L103.20 50.34Q100.03 53.71 99.54 53.71Q102.56 50.38 103.13 50.20M100.66 50.76Q100.77 50.76 100.88 50.97Q100.88 51.08 100.17 51.68Q100.03 51.68 100.03 51.54L100.03 51.46Q100.03 51.43 100.66 50.76M114.09 50.83Q114.23 50.87 114.23 50.97L114.23 51.18Q113.50 52.03 110.30 53.79Q109.88 54.35 109.52 54.35L109.52 54.28Q113.60 50.83 114.09 50.83M98.13 51.75L98.20 51.75Q98.20 51.85 97.50 52.45L97.43 52.45L97.43 52.31Q97.43 52.24 98.13 51.75M115.99 51.89Q116.13 51.92 116.13 52.03L116.13 52.24Q116.06 52.45 112.48 54.84Q112.34 54.84 112.34 54.70Q115.57 51.89 115.78 51.89L115.99 51.89M99.19 52.38L99.19 52.52Q99.19 52.66 99.05 52.66L98.84 52.66L98.84 52.59Q98.84 52.45 99.19 52.38M96.87 52.94L96.87 53.01Q96.87 53.75 95.67 54.21L95.67 54.07Q95.67 54.00 96.87 52.94M116.98 52.94Q117.08 52.94 117.19 53.15L117.19 53.29Q116.70 53.86 113.88 55.82Q113.74 55.82 113.74 55.68Q116.59 52.94 116.84 52.94L116.98 52.94M91.03 53.08Q90.64 53.93 90.26 53.93L90.26 53.86Q90.36 53.08 91.03 53.08M107.77 53.08L107.91 53.08L107.91 53.15Q107.59 53.82 106.22 55.19L106.15 55.19Q106.04 55.19 105.94 54.98L105.94 54.84Q106.71 53.82 107.77 53.08M101.09 53.22L101.23 53.22Q101.23 53.36 100.52 54.07L100.45 54.07Q100.45 53.57 101.09 53.22M98.20 53.29L98.27 53.29Q98.17 53.64 96.45 55.26L96.38 55.26L96.38 55.19Q96.94 54.24 98.20 53.29M118.24 53.86L118.31 54.00Q116.03 56.21 114.94 56.74L114.87 56.60Q117.50 53.93 117.82 53.93Q117.89 53.93 118.24 53.86M99.26 53.93L99.33 53.93L99.33 54.00Q98.80 54.91 97.22 56.18L97.15 56.18Q97.01 56.18 97.01 56.04Q98.27 54.56 99.26 53.93M109.38 54.42Q108.05 56.07 107.55 56.46Q107.48 56.35 107.48 56.25Q108.75 54.42 109.38 54.42M119.72 54.91Q119.86 54.95 119.86 55.05L119.86 55.19Q119.86 56.11 116.48 57.86Q116.48 57.72 119.02 55.61Q119.02 55.54 119.72 54.91M88.99 55.05L89.13 55.05Q89.13 55.89 87.87 56.46L87.87 56.39Q87.87 55.96 88.99 55.05M94.76 55.05L94.83 55.19L94.69 55.26L94.62 55.12L94.76 55.05M96.16 55.47L96.16 55.54Q96.16 55.68 95.88 55.82L95.88 55.68Q95.88 55.58 96.16 55.47M121.62 56.25L121.90 56.25Q122.04 56.28 122.04 56.39L122.04 56.53Q122.04 56.63 117.75 60.11L117.68 60.11L117.68 60.04Q119.51 57.97 121.62 56.25M110.09 56.60L110.16 56.60Q110.30 56.63 110.30 56.74Q109.63 57.55 108.82 58.14L108.68 58.14L108.68 58.00Q108.68 57.93 110.09 56.60M112.48 56.95L112.55 56.95L112.55 57.09Q112.55 57.23 112.27 57.37L112.20 57.37L112.20 57.23Q112.20 57.13 112.48 56.95M92.16 57.65L92.23 57.79Q92.23 57.93 92.09 57.93L92.02 57.93L92.02 57.79Q92.05 57.65 92.16 57.65M123.52 57.65L123.66 57.86Q122.85 58.88 118.95 61.87Q117.40 63.63 117.05 63.63Q116.91 63.56 116.84 63.56L116.84 63.42Q117.61 62.50 122.46 58.57Q123.06 57.65 123.52 57.65M111.49 57.79L111.63 57.79L111.63 58.07Q111.39 58.50 111.28 58.50Q111.18 58.50 111.07 58.29L111.07 58.21Q111.07 58.14 111.49 57.79M113.53 57.86L113.60 57.86L113.60 58.00Q113.60 58.14 113.46 58.14L113.39 58.14L113.39 58.00Q113.43 57.86 113.53 57.86M113.25 58.29Q112.23 59.90 112.13 59.90Q111.91 59.83 111.91 59.48Q112.69 58.29 113.25 58.29M115.78 58.36Q115.92 58.39 115.92 58.50Q115.68 58.71 115.43 58.71Q115.43 58.64 115.78 58.36M110.58 58.85Q110.72 58.88 110.72 58.99L110.72 59.06Q110.72 59.20 110.58 59.20Q110.47 59.20 110.37 58.99L110.58 58.85M115.29 58.85L115.29 58.92Q115.29 59.06 115.01 59.20L114.80 59.20L114.80 59.13Q114.80 58.99 115.29 58.85M123.87 59.69L123.87 59.90Q123.87 60.36 121.69 61.87Q120.60 63.00 120.49 63.00Q120.07 62.86 120.07 62.71Q120.91 61.77 121.90 61.24Q123.66 59.69 123.87 59.69M125.77 60.46Q125.91 60.50 125.91 60.61L125.91 60.75Q125.91 61.55 124.92 61.94Q124.92 61.87 124.85 61.87Q125.70 60.50 125.77 60.46M116.63 60.82L116.77 60.82L116.77 60.96Q114.76 63.42 114.66 63.42L114.38 63.42L114.23 63.35Q114.30 63.00 116.63 60.82M112.55 61.17L112.62 61.17Q112.76 61.20 112.76 61.31Q112.41 62.36 111.91 62.36Q111.81 62.36 111.70 62.15L111.70 62.08L112.55 61.17ZM171.44 30.16L171.86 30.16Q172.78 30.41 172.78 31.07Q172.50 32.06 172.50 32.48L172.50 33.46Q172.50 35.54 172.85 40.71L172.85 44.86Q172.85 47 171.93 53.71Q171.30 56.42 170.04 58.85Q168.95 61.17 167.01 62.93Q162.93 66.51 160.05 66.51L155.34 66.72Q154.39 66.65 154.14 66.65Q153.16 66.72 152.88 66.72Q148.10 66.72 141.98 60.75Q140.05 58.74 139.59 56.95Q137.27 50.87 137.27 44.15Q136.71 37.75 136.50 33.04Q135.58 32.09 135.58 31.92L135.58 31.64Q135.58 30.90 136.85 30.79L137.06 30.79Q142.37 31.78 145.71 31.78Q148.34 31.43 148.73 31.43Q149.86 31.64 149.86 32.34L149.86 32.55Q149.57 33.82 149.57 34.45Q149.57 37.30 150.98 46.40Q151.75 48.58 153.37 49.43Q154.57 50.06 154.99 50.06Q156.85 50.06 158.01 44.08Q158.15 42.92 158.50 34.45Q158.50 33.71 157.80 32.06L157.80 31.92Q158.01 30.93 158.64 30.93L160.75 31.14Q167.75 30.65 171.44 30.16M160.19 33.18Q160.54 34.48 160.54 35.50Q160.26 44.36 159.70 45.77Q159.70 47.07 158.01 50.55L158.01 50.62Q158.26 50.76 158.43 50.76L158.57 50.76Q159.00 50.76 161.39 48.37Q166.06 44.82 168.35 43.59Q168.35 43.52 169.05 42.89L169.33 42.89Q169.44 42.89 169.54 43.10L169.54 43.24Q169.33 44.05 166.10 45.56Q163.57 47.07 159.84 50.83Q158.22 52.31 157.94 52.31Q157.34 52.31 156.11 53.01L155.83 53.01Q155.73 53.01 155.62 52.80Q155.73 52.80 156.75 51.68L155.62 51.75Q151.72 51.75 149.29 47.25Q148.45 44.75 147.96 36.00Q147.82 34.98 147.82 34.80L147.54 34.80Q145.67 35.50 142.75 37.82Q141.80 38.67 140.50 40.21L140.36 40.29Q140.05 40.18 140.01 40.00L140.01 39.86Q143.84 35.89 146.48 34.59Q146.83 34.31 147.61 33.96L147.61 33.82Q147.61 33.75 147.18 33.39L145.29 33.39Q144.20 33.39 138.54 32.76Q138.54 32.90 138.39 33.25Q138.39 35.33 139.03 42.18Q139.03 46.68 140.01 52.10Q141.52 57.93 142.89 59.27Q146.55 63.28 149.64 64.33Q151.09 64.82 151.82 64.82Q161.25 64.72 161.25 64.33Q162.72 63.88 165.89 61.03Q167.93 58.88 167.93 58.14Q165.75 58.85 165.75 60.04Q165.46 60.54 165.18 60.54Q165.04 60.29 164.90 59.76Q164.59 59.76 159.98 62.79L159.91 62.79Q159.59 62.68 159.56 62.50L159.56 62.22Q159.77 61.94 163.50 59.69Q165.32 58.81 165.32 57.51Q165.32 56.98 167.08 56.67Q167.40 56.67 168.49 57.16Q168.91 56.70 170.11 52.31Q171.44 46.05 171.44 42.46Q171.16 37.26 171.02 33.46Q171.09 32.87 171.09 32.55Q171.09 31.92 170.46 31.92Q160.96 32.55 160.33 32.76Q160.19 33.01 160.19 33.18M166.80 32.97L166.87 32.97Q167.01 33.01 167.15 33.32Q167.15 33.75 165.39 34.59Q163.88 35.79 162.72 36.84L162.58 36.84Q162.16 36.70 162.16 36.35Q162.65 35.68 165.75 33.46Q166.31 32.97 166.80 32.97M169.96 33.11L170.32 33.11Q170.60 33.25 170.60 33.61L170.60 33.75Q170.60 33.89 168.35 35.22Q163.95 38.91 161.74 41.69L161.32 41.69Q161.18 41.69 161.18 41.55L161.18 41.41Q161.18 41.16 162.44 39.65Q161.46 39.34 161.46 39.16Q165.22 35.40 168.28 33.25L168.42 33.25Q168.80 33.25 168.98 33.68L166.10 35.86L165.61 36.42L165.61 36.49Q167.43 35.29 169.96 33.11M163.14 33.46Q163.50 33.57 163.50 33.96Q163.04 34.45 161.60 35.43L161.32 35.43Q161.21 35.43 161.04 35.15L161.04 35.08Q161.04 34.59 163.00 33.46L163.14 33.46M142.89 33.75Q143.04 33.78 143.04 33.89L143.04 34.03Q141.70 35.29 139.24 37.26L139.17 37.26Q139.03 37.26 139.03 37.12Q139.52 36.28 142.47 33.75L142.89 33.75M140.64 33.89L140.79 33.89Q140.89 33.89 141.00 34.10L141.00 34.38Q140.61 34.94 140.15 34.94L140.01 34.94Q139.91 34.94 139.80 34.73L139.80 34.66Q140.47 33.92 140.64 33.89M145.14 33.96Q145.46 34.10 145.50 34.24Q145.50 34.34 143.18 35.79Q140.75 38.07 140.01 38.88L139.87 38.95L139.80 38.95Q139.66 38.95 139.66 38.81Q139.66 38.25 141.00 37.12Q143.91 34.24 145.14 33.96M170.11 35.15Q170.67 35.33 170.67 35.71Q169.79 36.59 166.80 38.46Q166.10 38.67 161.11 44.01L160.82 44.01Q160.72 44.01 160.54 43.73L160.54 43.66Q160.54 43.24 162.93 40.99Q166.34 37.58 168.42 36.35Q169.72 35.15 170.11 35.15M146.90 35.64L147.04 35.64Q147.15 35.64 147.32 35.93Q146.90 36.59 144.58 37.96Q142.16 40.25 140.29 41.97L140.15 41.97Q140.05 41.97 139.94 41.76Q139.94 41.20 143.53 38.18L146.90 35.64M164.34 37.54L164.48 37.61L164.69 37.33L164.69 37.26L164.62 37.26Q164.52 37.26 164.34 37.54M146.69 37.75L146.69 38.18Q146.69 38.74 144.58 39.72Q143.07 40.81 140.57 43.66L140.50 43.66Q140.22 43.52 140.22 43.31Q142.05 40.74 145.21 38.53Q146.62 37.75 146.69 37.75M169.33 38.04Q169.61 38.14 169.75 38.39L169.75 38.74Q169.33 39.23 165.11 42.25Q164.94 42.29 160.96 46.33Q160.68 46.23 160.68 46.12L160.68 45.77Q163.29 42.82 166.17 40.78L169.26 38.04L169.33 38.04M163.21 38.46Q163.25 38.60 163.36 38.60L163.50 38.39L163.43 38.39Q163.29 38.46 163.21 38.46M146.90 39.72Q147.04 39.76 147.04 39.86L147.04 40.00Q147.04 40.57 145.21 41.41Q143.67 42.32 140.64 45.42Q139.98 45.98 139.80 45.98L139.66 45.77Q143.81 41.30 145.50 40.57Q145.53 40.50 146.90 39.72M169.96 40.85L170.25 40.85Q170.46 40.92 170.46 41.27Q170 41.87 167.08 43.24Q164.41 44.79 161.46 47.46Q160.19 48.90 159.84 49.14L159.63 49.14Q159.35 49.00 159.35 48.79Q162.30 45.63 164.62 44.08Q169.54 40.85 169.96 40.85M147.32 41.13L147.54 41.13Q147.68 41.13 147.82 41.55Q147.82 41.76 144.02 44.93Q143.07 45.80 140.79 48.72L140.50 48.79Q140.22 48.69 140.22 48.58L140.22 48.30Q143.84 44.05 147.11 41.34Q147.11 41.27 147.32 41.13M146.76 44.29L146.97 44.29Q147.08 44.29 147.39 44.71Q145.36 45.88 141.28 50.34L141.21 50.34Q141.07 50.34 140.93 49.99Q141.24 49.04 145.85 45.00Q146.73 44.29 146.76 44.29M168.56 45.77L168.77 45.77Q169.12 45.98 169.12 46.26Q168.73 46.86 165.32 49.21Q159.77 53.29 158.79 54.21Q154.74 57.97 151.05 60.11Q150.17 60.82 149.01 62.22Q148.91 62.29 148.73 62.29L148.66 62.29Q148.55 62.29 148.45 62.08L148.45 61.94Q148.48 61.31 151.26 59.13Q153.02 58.53 159.07 53.01Q161.53 50.97 167.36 46.75Q168.17 45.77 168.56 45.77M146.62 46.96Q146.87 47.11 146.97 47.11L146.97 47.25Q146.97 47.74 145.57 48.37Q144.93 48.62 141.35 52.03Q141.07 51.89 141.07 51.61Q141.88 50.41 144.65 48.16Q146.34 46.96 146.62 46.96M148.10 48.09Q148.38 48.20 148.52 48.44L148.52 48.51Q148.41 48.79 146.62 49.64Q145.14 50.62 142.61 53.15L142.19 53.15Q142.05 53.15 142.05 53.01L142.05 52.73Q145.50 49.14 146.48 48.93Q147.54 48.09 148.10 48.09M168.07 49.57Q168.49 49.74 168.49 50.13Q168.49 50.55 165.46 52.66Q159.42 56.67 155.69 59.83Q153.93 61.41 153.93 61.87Q153.93 62.26 153.65 62.43Q152.28 63.56 151.75 63.56Q151.65 63.56 151.47 63.28L151.47 63.21Q151.47 62.71 154.92 59.83Q161.07 54.52 164.62 52.24Q166.38 51.11 167.79 49.64Q167.82 49.64 168.07 49.57M148.52 49.78Q148.94 49.99 148.94 50.27Q148.70 50.73 146.20 52.38Q143.49 54.84 143.18 54.84Q143.04 54.63 143.04 54.42Q143.04 54.28 146.27 51.39Q148.27 49.78 148.52 49.78M149.22 51.11L149.43 51.11Q149.54 51.11 149.71 51.39L149.71 51.61Q149.68 51.75 146.55 53.71Q146.27 54.00 144.16 55.96L144.02 55.96Q144.02 55.86 143.88 55.54Q144.27 54.63 147.32 52.45L149.22 51.11M168.63 52.38Q169.19 52.41 169.19 52.94Q169.19 53.40 166.59 55.05Q160.44 59.76 156.39 63.42Q155.76 63.70 155.69 63.70L155.48 63.42L155.48 63.21Q155.87 62.86 162.02 58.00Q167.40 53.22 168.42 52.38L168.63 52.38M150.98 52.45Q151.33 52.66 151.33 52.73L151.33 52.80Q151.23 53.05 149.22 54.00Q148.38 54.45 145.99 57.09L145.71 57.23Q145.53 57.23 145.36 56.88Q145.99 55.75 148.52 53.79Q150.56 52.45 150.84 52.45L150.98 52.45M153.30 52.59L153.51 53.01Q153.51 53.50 152.11 54.14Q150.35 54.84 147.54 57.44Q147.54 57.72 146.97 58.14L146.76 58.14Q146.62 58.14 146.62 58.00L146.62 57.58Q148.77 55.40 153.02 52.73Q153.02 52.59 153.30 52.59M155.34 53.29Q155.66 53.43 155.69 53.57L155.69 53.86Q155.66 54.07 152.53 56.04Q148.17 59.90 148.03 59.90Q147.82 59.90 147.54 59.97L147.46 59.83Q147.46 59.52 150.63 56.74Q154.95 53.40 155.34 53.29ZM179.15 25.24L179.64 25.24Q190.79 25.87 195.74 26.71Q204.36 28.30 206.99 31.00Q208.01 31.81 209.24 33.54Q211.98 38.04 211.98 41.55L211.98 42.32Q211.98 43.66 209.80 48.30Q208.54 49.85 205.52 51.46Q202.88 53.22 197.57 54.07Q196.55 54.35 191.88 54.63Q191.28 54.56 190.89 54.56L188.99 54.56Q188.46 54.56 188.36 55.12Q188.85 63.80 189.13 66.16Q189.13 66.69 187.87 66.72L187.66 66.72Q186.53 66.37 178.09 65.74Q177.57 65.74 175.98 66.02Q175.39 66.02 175 65.46L175 65.25Q175.63 62.61 175.63 56.67Q175.91 53.12 176.97 31.36Q176.90 29.35 176.90 28.05L176.83 27.91Q177.18 27.21 177.39 25.73Q177.39 25.31 179.15 25.24M178.87 28.75Q178.87 32.02 177.18 62.01Q177.11 62.01 177.11 63.70Q177.11 64.26 179.85 64.26Q185.13 64.75 186.60 64.75Q186.88 64.47 186.88 63.42Q186.88 58.57 186.32 54.91Q185.97 54.31 185.97 53.86L185.97 53.71Q185.97 52.80 187.52 52.66Q199.26 52.66 203.05 50.62Q205.66 49.60 207.84 47.46Q208.54 46.61 209.59 43.52Q209.95 42.68 209.95 41.48L209.95 41.27Q209.95 38.70 208.05 35.29L207.70 34.94Q207.70 35.57 205.66 36.77Q203.69 38.35 200.88 40.92Q199.61 41.76 199.61 43.10Q196.80 46.54 195.18 46.54Q194.65 46.54 191.52 46.96Q188.85 47.04 188.43 47.25L188.43 47.32Q188.96 47.32 189.13 47.81Q189.06 48.09 187.02 49.43Q185.79 50.45 184.56 51.96Q183.40 52.84 179.29 56.32L179.22 56.32L179.15 56.18Q179.15 55.44 182.95 52.38Q185.55 50.20 188.22 47.32Q186.85 47.32 186.67 46.54L186.53 46.19L187.30 35.50Q187.30 34.41 186.53 33.61L186.46 33.61Q184.88 34.24 180.91 37.96Q180.10 38.88 179.71 38.88Q179.43 38.77 179.43 38.67Q179.46 38.39 182.10 36.00Q183.65 34.66 185.41 33.46Q186.14 32.55 186.53 32.55Q186.67 32.55 187.38 32.69Q188.36 32.69 190.33 30.79Q192.30 29 193 28.40L193.07 28.54L193.07 28.68Q193.07 29.56 191.03 31.00L189.34 32.48L189.34 32.55Q189.98 32.90 190.54 32.90Q191.24 32.90 194.83 29.46Q195.04 29.25 195.81 29.11L195.95 29.32Q195.95 29.74 194.41 30.79Q191.73 33.04 191.66 33.18Q191.66 33.36 192.65 33.68Q193.14 33.68 195.53 31.07Q197.08 29.60 197.78 29.46Q198.20 29.63 198.20 29.74Q198.03 30.13 196.38 31.14L193.49 33.89Q193.60 34.17 193.98 34.17Q194.30 34.17 196.59 31.99Q198.77 30.44 199.26 30.44L199.33 30.58L199.33 30.65Q199.33 31.11 197.78 31.85Q196.55 32.69 194.83 34.45L194.83 34.66Q195.43 35.08 195.60 35.08Q195.74 35.08 199.68 31.29Q200.45 30.65 200.73 30.65L200.95 30.65Q201.09 30.69 201.09 30.79Q201.09 31.29 199.47 32.27Q196.38 35.26 196.38 35.43Q196.48 35.79 196.80 35.93Q197.15 35.93 199.33 33.89Q200.70 32.69 202.14 31.64Q202.28 31.64 202.42 32.13Q202.32 32.41 198.34 35.57Q197.64 36.35 197.43 36.35Q199.05 38.63 199.33 38.81Q202.39 35.89 205.66 33.46L205.73 33.46L206.22 33.61Q206.22 34.31 205.16 34.66Q203.37 35.79 199.61 39.51L199.61 39.58Q200.03 40.50 200.03 40.71L200.10 40.71Q205.94 35.75 206.92 35.01Q207.41 34.80 207.63 34.80Q206.43 32.20 202.63 30.44Q201.47 29.53 193.63 28.19Q188.64 27.49 181.54 27.21Q181.54 27.14 180.84 27.14Q178.94 27.14 178.94 28.19Q178.87 28.47 178.87 28.75M184.84 28.47Q184.98 28.51 184.98 28.61Q184.95 28.96 182.10 31.43Q180.55 33.04 179.92 33.04L179.85 32.90Q184.25 28.47 184.56 28.47L184.84 28.47M182.88 28.54Q182.98 28.54 183.30 28.68Q183.30 29.21 181.75 30.02Q180.20 31.50 179.85 31.50L179.78 31.36Q179.78 30.90 182.66 28.54L182.88 28.54M186.11 29.25L186.25 29.25Q186.36 29.25 186.46 29.46L186.46 29.60Q186.46 29.77 184.35 31.00Q182.35 32.69 179.64 35.22L179.57 35.22Q179.46 35.22 179.36 35.01Q179.36 34.63 183.30 31.07Q185.79 29.25 186.11 29.25M188.92 29.60Q189.52 29.60 189.84 30.02Q189.84 30.79 187.66 31.00Q186.74 31.00 184.28 33.39Q184.21 33.39 179.92 37.05L179.50 37.12L179.50 36.98Q179.50 36.59 181.54 34.94Q187.34 29.60 188.92 29.60M203.90 32.55L203.97 32.55Q204.39 32.55 204.39 32.83Q204.32 33.08 202.84 33.96Q200.03 36.49 198.91 37.40L198.77 37.40Q198.48 37.40 198.34 37.12L198.34 37.05Q203.27 32.55 203.90 32.55M189.70 34.73Q189.06 35.29 189.06 39.58Q188.99 39.58 188.71 44.93Q188.82 45.28 189.06 45.28Q195.46 44.86 195.46 44.36Q197.78 43.10 197.78 41.13Q197.78 37.93 191.80 35.29Q190.68 34.94 189.70 34.73M186.39 35.15Q186.67 35.26 186.67 35.36L186.67 35.57Q186.50 35.89 184.35 36.98Q181.08 39.72 180.77 39.79Q180.63 39.86 180.55 39.86Q180.41 39.72 180.41 39.58Q180.55 39.13 182.73 37.40Q185.09 35.61 186.39 35.15M185.34 37.47Q185.69 37.54 185.69 37.68L185.69 37.75Q185.69 38.25 184 39.02Q182.10 40.25 179.85 42.46L179.43 42.46Q179.43 41.62 183.44 38.53Q185.09 37.47 185.34 37.47M207.06 37.89L207.41 37.89Q207.55 37.93 207.55 38.04L207.55 38.11Q207.55 38.53 206.36 39.23Q203.16 41.45 200.52 43.87Q200.42 43.94 200.24 43.94Q200.10 43.94 200.10 43.80Q203.55 40.46 207.06 37.89M207.91 39.23L208.05 39.23Q208.05 39.37 208.19 39.65Q208.12 40.07 203.20 44.50L198.63 48.37L198.41 48.37L198.41 48.23Q199.08 47.39 205.02 42.11Q205.59 41.80 207.48 39.58L207.91 39.23M185.34 39.65L185.48 39.65L185.48 40.07Q185.27 40.43 182.38 42.18Q180.03 44.33 179.36 44.79Q179.36 44.71 179.29 44.71Q180.20 42.68 184.28 40.14Q185.05 39.65 185.34 39.65M208.40 40.99Q208.50 40.99 208.68 41.27Q208.54 41.97 206.15 43.52Q202.84 46.19 198.34 50.48L197.78 50.48L197.78 50.41Q199.36 48.65 204.18 44.50Q205.97 43.31 207.55 41.62Q207.94 40.99 208.40 40.99M184.56 42.39Q184.77 42.46 184.77 42.82Q184.77 43.34 182.88 44.08L179.36 46.75L179.29 46.75L179.29 46.68Q179.29 45.35 184.56 42.39M209.03 42.46Q209.38 42.57 209.38 42.68L209.38 42.75Q209.38 43.24 207.55 44.29L202.56 48.23L202.42 48.23Q202.28 48.23 202.28 48.09L202.28 48.02Q203.09 47.14 207.27 43.87Q208.75 42.50 209.03 42.46M184.56 43.80L184.63 43.80Q184.74 43.80 184.84 44.01L184.84 44.22Q184.84 44.36 182.24 46.05Q181.43 46.61 179.50 48.65L179.43 48.65Q179.29 48.65 179.29 48.51L179.29 48.16Q183.61 43.80 184.56 43.80M200.03 45.00Q200.38 45.14 200.38 45.42Q200.24 45.91 197.01 47.95Q195.57 49.14 193.98 50.83Q193.77 50.76 193.77 50.41L193.77 50.34Q193.98 50.06 197.29 47.04L197.22 47.04Q195.74 47.74 192.44 50.69L192.16 50.69L192.16 50.27Q196.41 46.30 197.71 45.84Q198.03 46.02 198.13 46.33Q198.59 46.09 199.96 45.00L200.03 45.00M185.20 45.56L185.34 45.91Q185.23 46.30 184.84 46.75Q185.02 46.75 185.20 47.11Q185.20 47.67 182.38 49.43Q180.91 50.66 178.66 53.08Q178.52 53.15 178.45 53.15L178.38 53.01L178.38 52.66Q180.10 50.38 183.02 48.30Q183.75 47.81 184.42 47.04L184.35 47.04Q182.42 47.98 178.80 50.97L178.73 50.83L178.73 50.69Q178.73 50.20 181.12 48.51Q184.88 45.56 185.20 45.56M193.91 47.11L194.13 47.11Q194.34 47.11 194.34 47.39Q194.34 47.84 193 48.44Q191.77 49.39 190.12 51.04L189.98 51.04L189.91 50.90L189.91 50.55Q193.49 47.11 193.91 47.11M191.17 47.81L191.24 47.81Q191.77 47.91 191.80 48.09L191.80 48.16Q189.66 49.53 187.52 51.46Q187.38 51.46 187.38 51.32L187.38 51.18Q187.38 50.69 190.33 48.30Q190.82 47.81 191.17 47.81M184.84 48.65L184.98 48.86L184.98 49.36Q184.77 49.71 181.54 52.03Q179.75 53.71 178.52 54.91L178.38 54.91L178.30 54.56Q180.94 51.46 183.58 49.71Q184.81 48.65 184.84 48.65M197.85 48.72L197.92 48.72Q198.06 48.76 198.06 48.86L197.57 49.36Q197.43 49.36 197.43 49.21Q197.71 48.72 197.85 48.72M201.37 48.93L201.44 49.07L201.44 49.29Q201.44 49.39 201.09 49.64L201.02 49.64Q200.88 49.64 200.88 49.50L200.88 49.43Q200.88 49.36 201.37 48.93M184.70 53.29L184.77 53.29Q184.88 53.29 184.98 53.50L184.98 53.57Q184.98 54.00 183.44 54.98Q183.44 55.05 178.94 59.13L178.87 59.13Q178.73 59.13 178.73 58.92Q179.18 57.79 183.72 53.93Q184.42 53.29 184.70 53.29M184.91 54.84L185.05 55.05L185.05 55.47Q185.05 55.96 182.38 58.00Q180.31 59.90 179.50 60.46L179.43 60.46Q179.29 60.46 179.29 60.32L179.29 60.18Q179.29 60.04 184.91 54.84M184.63 57.58L184.70 57.58L184.70 57.65Q183.40 59.52 181.12 60.75Q180.10 61.38 179.99 61.38L179.99 61.31Q180.98 60.11 183.44 58.50Q183.47 58.39 184.63 57.58M184.70 59.76Q184.70 59.83 184.77 59.83Q184.21 60.89 183.44 60.89Q183.44 60.96 183.37 60.96L183.30 60.82Q183.86 60.18 184.70 59.76Z"></path></svg>